<?xml version="1.0" encoding="utf-8"?>
<!-- Generator: Adobe Illustrator 26.0.0, SVG Export Plug-In . SVG Version: 6.00 Build 0)  -->
<svg version="1.1" id="Layer_1" xmlns="http://www.w3.org/2000/svg" xmlns:xlink="http://www.w3.org/1999/xlink" x="0px" y="0px"
	 viewBox="0 0 2000 2000" style="enable-background:new 0 0 2000 2000;" xml:space="preserve">
<style type="text/css">
	.st0{fill:#45BF55;}
	.st1{fill:#FFFFFF;}
</style>
<circle class="st0" cx="1000" cy="1000" r="1000"/>
<g>
	<path class="st1" d="M986.45,1774.46c-16.02-8.12-25.01-21.75-32.38-37.76c-27.38-59.51-55.99-118.45-83.35-177.97
		c-12.18-26.5-31.48-38.59-60.65-38.46c-111.53,0.49-223.07,0.24-334.61,0.18c-67.38-0.04-107.22-39.84-107.25-107.16
		c-0.06-143.33-0.02-286.66-0.01-429.99c0-4.54-0.3-9.16,0.4-13.6c1.8-11.36,8.69-18.08,20.17-19.02
		c11.46-0.94,19.83,4.32,22.98,15.43c1.75,6.15,1.78,12.93,1.78,19.43c0.09,142.32,0.05,284.64,0.08,426.97
		c0.01,43.43,19.19,62.53,62.8,62.54c110.53,0.03,221.06,0.46,331.58-0.2c50.02-0.3,84.18,21.27,104.87,66.81
		c25.21,55.51,51.76,110.41,77.78,165.55c2.07,4.39,4.5,8.62,7.82,14.95c3.47-6.48,6.16-11.03,8.41-15.8
		c26.48-56.04,53.15-111.99,79.23-168.22c19.74-42.55,52.68-63.2,99.39-63.14c112.04,0.15,224.08,0.07,336.12,0.04
		c42.45-0.01,61.85-19.46,61.86-61.99c0.03-188.25-0.01-376.5,0.1-564.75c0-6.98-1.14-15.86,2.52-20.47
		c5.27-6.63,14.06-13.22,22.06-14.22c10.78-1.36,18.52,6.77,20.3,18.3c0.69,4.45,0.44,9.06,0.45,13.6
		c0.02,189.26,0.05,378.52-0.01,567.77c-0.02,67.42-39.8,107.14-107.26,107.18c-111.03,0.07-222.07,0.41-333.09-0.24
		c-30.47-0.18-50.17,12.13-62.81,39.88c-26.93,59.16-55.51,117.56-82.69,176.61c-7.37,16.02-16.39,29.62-32.39,37.76
		C1002.6,1774.46,994.53,1774.46,986.45,1774.46z"/>
	<path class="st1" d="M1484.37,515.7c14.66,0,27.03-0.1,39.4,0.02c64.3,0.64,104.91,41.17,105.15,105.05
		c0.13,34.81,0.11,69.61-0.02,104.42c-0.07,17.67-8.63,28.2-22.42,28.22c-13.76,0.01-22.8-10.72-22.89-28.13
		c-0.2-35.81,0.11-71.63-0.13-107.45c-0.23-34.31-20.94-55.53-55.39-56.57c-18.65-0.56-37.36,0.56-55.98-0.4
		c-10.33-0.53-15.04,3.74-19.58,12.31c-39.84,75.24-79.59,150.55-120.76,225.07c-8.49,15.37-21.22,29.42-34.77,40.76
		c-27.8,23.28-57.59,44.18-86.35,66.34c-19.75,15.22-40.7,20.14-63.17,7.21c-21.71-12.49-28.36-32.4-26.49-56.64
		c2.91-37.71,4.08-75.56,7.7-113.19c1.36-14.15,5.18-29.06,11.8-41.55c78.75-148.71,158.18-297.06,237.6-445.42
		c16.73-31.24,45.11-40.08,76.57-23.8c30.87,15.97,61.57,32.3,91.97,49.15c29.26,16.21,37.73,44.9,22.05,74.77
		c-25.06,47.73-50.73,95.14-76.08,142.71C1490.04,503.32,1487.91,508.27,1484.37,515.7z M1478.59,428.39
		c-37.33-19.98-73.09-39.12-109.88-58.81c-49.65,92.92-98.64,184.6-148.13,277.21c37.52,20.03,73.34,39.15,109.9,58.67
		C1379.88,613.03,1428.75,521.62,1478.59,428.39z M1199.51,687.05c-13.71,24.17-27.34,45.95-27.67,73.86
		c-0.4,33.18-3.76,66.32-5.42,99.5c-0.2,4.02,1.46,11.06,3.62,11.64c3.83,1.03,9.55-0.68,13-3.23
		c25.51-18.83,49.75-39.52,76.18-56.91c24.71-16.27,36.71-40.28,49.22-66.48C1272.17,725.99,1236.37,706.8,1199.51,687.05z
		 M1499.98,388.2c9.84-18.37,18.95-35.69,28.39-52.82c4.23-7.66,1.42-11.97-5.53-15.65c-29.8-15.75-59.36-31.95-89.4-47.23
		c-3.39-1.73-11.88-0.25-13.5,2.44c-10.47,17.47-19.69,35.68-29.81,54.56C1427.66,349.55,1463.41,368.66,1499.98,388.2z"/>
	<path class="st1" d="M1262.75,1412.65c-118.93,0.62-216.54-97.89-215.41-217.39c1.13-119.23,101.02-215.98,220.3-211.56
		c23.78,0.88,47.65,7.23,70.86,13.37c18.14,4.79,24.73,17.69,19.84,31.47c-4.77,13.44-17.32,17.26-35.65,10.85
		c-86.94-30.38-178.07,6.48-214.33,88.63c-28.2,63.88-19.99,125.21,24.88,178.43c45.8,54.31,106.23,72.85,174.58,53.78
		c66.99-18.69,107.65-64.82,121.02-133.45c8.71-44.74-1.51-85.93-26.06-124.05c-11.65-18.1-3.26-38.9,15.67-37.47
		c7.95,0.6,17.86,7.29,22.56,14.17c66.97,98.15,38.28,234.08-62.42,298.89C1343.67,1400.78,1304.38,1412.43,1262.75,1412.65z"/>
	<path class="st1" d="M735.3,1412.64c-111.48,0.38-207.05-87.45-214.89-197.51c-8.15-114.3,71.75-214.48,184.68-230.21
		c40.69-5.67,80.51-0.55,118.16,17.08c16.23,7.6,22.04,19.32,16.1,32.19c-5.83,12.64-18.55,16-34.84,9.18
		c-119.07-49.79-243.07,34.69-238.91,162.76c2.79,85.86,73.49,155.68,162.61,160.58c84.41,4.63,161.84-59.5,173.84-143.07
		c5.68-39.53-1.38-76.12-20.68-110.75c-8.98-16.12-6.48-30.02,6.16-36.56c12.19-6.3,24.75-1.3,33.25,14.29
		c38.76,71.08,39.54,142.72,0.23,213.54C883.68,1371.43,812.09,1412.38,735.3,1412.64z"/>
	<path class="st1" d="M798.65,561.12c-107.46,0-214.93-0.35-322.39,0.44c-13.47,0.1-28.28,3.69-40.02,10.13
		c-17.12,9.38-22.8,26.87-22.73,46.48c0.28,76.69,0.14,153.37,0.05,230.06c-0.01,5.5,0.05,11.25-1.43,16.46
		c-3.33,11.7-11.75,17.6-23.89,16.3c-11.33-1.21-18.17-8.09-19.7-19.55c-0.53-3.98-0.34-8.06-0.34-12.09
		c-0.02-76.18-0.12-152.37,0.02-228.55c0.12-63.93,40.77-104.94,105.13-105.01c216.94-0.24,433.89-0.1,650.83-0.03
		c4.99,0,10.19,0.29,14.94,1.66c11.14,3.23,16.8,11.63,15.94,22.75c-0.85,11-7.26,18.78-18.94,20.35
		c-5.46,0.74-11.07,0.57-16.61,0.57C1012.57,561.13,905.61,561.12,798.65,561.12z"/>
	<path class="st1" d="M792.78,699.41c-81.16,0-162.33,0.3-243.48-0.44c-8.49-0.08-19.32-4.04-24.86-10.06
		c-11.01-11.97-1.97-31.4,14.65-34.45c4.41-0.81,9.05-0.46,13.58-0.46c159.8-0.02,319.61-0.02,479.41-0.01
		c2.52,0,5.05-0.08,7.56,0.05c15.02,0.76,25.07,10.01,24.95,22.89c-0.12,12.93-10.18,22.31-25.28,22.39
		c-43.35,0.24-86.71,0.09-130.06,0.09C870.41,699.41,831.59,699.41,792.78,699.41z"/>
	<path class="st1" d="M792.16,809.44c-80.24,0-160.48,0.06-240.71-0.11c-6.43-0.01-14.71,0.55-18.83-2.99
		c-5.79-4.98-12.26-13.98-11.51-20.47c0.82-7.21,8.46-14.81,15-19.75c4.08-3.08,11.65-2.02,17.65-2.03
		c158.96-0.09,317.92-0.07,476.89-0.07c3.03,0,6.07-0.11,9.08,0.11c15.1,1.12,25.04,10.46,24.79,23.19
		c-0.25,12.86-10.13,21.91-25.58,21.99c-52.48,0.26-104.97,0.12-157.45,0.13C851.71,809.44,821.94,809.44,792.16,809.44z"/>
	<path class="st1" d="M871.07,874.7c56.01,0.01,112.02-0.13,168.04,0.1c15.15,0.06,25.36,9.57,25.43,22.29
		c0.07,12.77-10.02,22.05-25.1,22.93c-4.02,0.23-8.07,0.07-12.11,0.07c-87.8,0-175.61,0-263.41,0c-19.18,0-38.35,0.16-57.53-0.05
		c-17.56-0.19-28.2-8.92-28.34-22.73c-0.14-13.84,10.42-22.57,28.01-22.6C761.06,874.62,816.07,874.68,871.07,874.7z"/>
	<path class="st1" d="M722.78,1323.55c-23.51-0.38-53.35-12.97-77.94-37.7c-11.73-11.8-12.45-24.73-2.56-34.56
		c9.47-9.41,21.74-8.8,33.53,1.65c38.59,34.23,79.18,34.35,117.5,0.35c12.46-11.06,25.21-11.52,34.62-1.26
		c8.98,9.8,7.92,22.18-2.86,33.67C802.67,1309.54,768.72,1323.7,722.78,1323.55z"/>
	<path class="st1" d="M1263.45,1210.77c33.75,0.5,63.3,12.59,87.77,36.68c12.68,12.48,13.83,25.5,3.66,35.7
		c-9.71,9.74-22.01,8.81-34.62-2.61c-36.15-32.75-79.31-32.91-115.31-0.43c-13.36,12.05-26.03,12.9-35.72,2.38
		c-9.72-10.55-8.17-23.05,5-35.7C1198.97,1223.06,1228.49,1210.92,1263.45,1210.77z"/>
	<path class="st1" d="M563.3,919.78c-7.53,0-15.15,0.73-22.58-0.16c-13.05-1.57-21.23-11.47-20.61-23.58
		c0.6-11.78,9.76-20.69,23.06-21.16c14.55-0.52,29.15-0.5,43.71-0.01c12.86,0.43,20.47,7.6,21.74,20.5
		c1.21,12.29-6.85,22.56-19.71,24.16c-8.41,1.04-17.05,0.2-25.59,0.2C563.3,919.75,563.3,919.77,563.3,919.78z"/>
	<path class="st1" d="M806.98,1174.61c-17.24-0.05-27.39-8.86-27.07-23.49c0.32-14.48,10.18-22.13,28.24-21.92
		c16.13,0.19,26.59,8.95,26.66,22.34C834.88,1165.49,823.83,1174.66,806.98,1174.61z"/>
	<path class="st1" d="M1189.86,1129.2c17.62-0.02,27.58,8.27,27.4,22.81c-0.17,13.74-10.29,22.37-26.51,22.59
		c-16.97,0.24-28.11-8.56-28.44-22.46C1161.98,1138.25,1172.82,1129.23,1189.86,1129.2z"/>
	<path class="st1" d="M663.01,1174.6c-17.24,0.2-27.86-8.35-28.04-22.61c-0.18-13.88,9.67-22.53,25.97-22.8
		c17.9-0.29,28.23,7.41,28.81,21.48C690.34,1165.02,679.85,1174.4,663.01,1174.6z"/>
	<path class="st1" d="M1335.27,1129.2c16.72,0.1,26.53,8.1,26.86,21.9c0.34,14.37-10.12,23.43-27.13,23.5
		c-17.13,0.08-27.7-8.72-27.65-23.02C1307.4,1137.32,1317.66,1129.1,1335.27,1129.2z"/>
</g>
</svg>
